<svg xmlns="http://www.w3.org/2000/svg" width="1024" height="1024" viewBox="0 0 1024 1024" role="img" aria-labelledby="title desc">
  <title id="title">Caruso Reborn icon</title>
  <desc id="desc">Blue rounded app icon with T plus A above a radio signal.</desc>
  <defs>
    <linearGradient id="body" x1="158" y1="108" x2="832" y2="936" gradientUnits="userSpaceOnUse">
      <stop offset="0" stop-color="#58bfff" />
      <stop offset="0.45" stop-color="#129dff" />
      <stop offset="1" stop-color="#0078e8" />
    </linearGradient>
    <radialGradient id="shine" cx="0" cy="0" r="1" gradientTransform="matrix(520 590 -670 590 210 150)" gradientUnits="userSpaceOnUse">
      <stop offset="0" stop-color="#ffffff" stop-opacity="0.52" />
      <stop offset="0.4" stop-color="#ffffff" stop-opacity="0.16" />
      <stop offset="1" stop-color="#ffffff" stop-opacity="0" />
    </radialGradient>
    <linearGradient id="glyph" x1="220" y1="250" x2="720" y2="720" gradientUnits="userSpaceOnUse">
      <stop offset="0" stop-color="#07111d" />
      <stop offset="1" stop-color="#082f4f" />
    </linearGradient>
    <filter id="outer-shadow" x="-8%" y="-8%" width="116%" height="120%" color-interpolation-filters="sRGB">
      <feDropShadow dx="0" dy="16" stdDeviation="18" flood-color="#002a62" flood-opacity="0.35" />
    </filter>
    <filter id="glyph-shadow" x="-10%" y="-12%" width="120%" height="128%" color-interpolation-filters="sRGB">
      <feDropShadow dx="0" dy="10" stdDeviation="7" flood-color="#001225" flood-opacity="0.72" />
    </filter>
  </defs>

  <g filter="url(#outer-shadow)">
    <rect x="10" y="70" width="1004" height="914" rx="178" fill="url(#body)" />
    <rect x="10" y="70" width="1004" height="914" rx="178" fill="url(#shine)" />
    <path d="M55 250c28-104 92-150 210-156h486c113 0 183 56 209 153" fill="none" stroke="#e9fbff" stroke-width="12" stroke-linecap="round" opacity="0.58" />
    <rect x="22" y="82" width="980" height="890" rx="168" fill="none" stroke="#535d62" stroke-width="7" opacity="0.9" />
  </g>

  <g filter="url(#glyph-shadow)">
    <circle cx="342" cy="315" r="48" fill="url(#glyph)" stroke="#344b5d" stroke-width="8" />
    <text x="342" y="340" fill="#1c9eff" font-family="Avenir Next, SF Pro Display, Helvetica Neue, Arial, sans-serif" font-size="62" font-weight="800" text-anchor="middle">T</text>

    <path d="M466 272v86M423 315h86" fill="none" stroke="url(#glyph)" stroke-width="27" stroke-linecap="round" />
    <path d="M466 272v86M423 315h86" fill="none" stroke="#344b5d" stroke-width="7" stroke-linecap="round" opacity="0.85" />

    <circle cx="590" cy="315" r="48" fill="url(#glyph)" stroke="#344b5d" stroke-width="8" />
    <text x="590" y="341" fill="#1c9eff" font-family="Avenir Next, SF Pro Display, Helvetica Neue, Arial, sans-serif" font-size="64" font-weight="800" text-anchor="middle">A</text>
  </g>

  <g filter="url(#glyph-shadow)" fill="url(#glyph)" stroke="#344b5d" stroke-width="0.23">
    <g transform="translate(162 364) scale(35) translate(-84 -3482)">
      <path d="M95.4324393,3487.63833 C95.4094393,3487.61278 95.3924393,3487.58428 95.3674393,3487.55971 L95.3634393,3487.56265 C94.5824393,3486.79509 93.2434393,3486.86683 92.5364393,3487.56167 C91.8294393,3488.25651 91.8314393,3489.64423 92.5384393,3490.33907 C92.5474393,3490.34791 92.5584393,3490.35381 92.5674393,3490.36265 C92.5914393,3490.38722 92.6084393,3490.41671 92.6334393,3490.44128 L92.6364393,3490.43735 C93.4174393,3491.20491 94.7564393,3491.13415 95.4634393,3490.43833 C96.1704393,3489.74349 96.1684393,3488.35577 95.4614393,3487.66093 C95.4524393,3487.65209 95.4414393,3487.64717 95.4324393,3487.63833 M91.1194393,3486.17002 L89.7054393,3484.77936 C87.5844393,3486.86486 87.6834393,3491.13612 89.8044393,3493.22064 L91.2184393,3491.83096 C89.8044393,3490.44128 89.7054393,3487.55971 91.1194393,3486.17002 M88.2914393,3483.38968 L86.8774393,3482 C82.6344393,3486.17002 83.4404393,3492.5258 86.9764393,3496 L88.3904393,3494.61032 C85.5624393,3491.83096 85.4634393,3486.17002 88.2914393,3483.38968 M98.1954393,3484.77936 L96.7814393,3486.17002 C98.1954393,3487.55971 98.2944393,3490.44128 96.8804393,3491.83096 L98.2944393,3493.22064 C100.415439,3491.13612 100.316439,3486.86486 98.1954393,3484.77936 M101.122439,3496 L99.7084393,3494.61032 C102.537439,3491.83096 102.438439,3486.17002 99.6094393,3483.38968 L101.023439,3482 C104.559439,3485.47518 105.365439,3491.83096 101.122439,3496" />
    </g>
  </g>
</svg>
